<svg width="50" height="51" viewBox="0 0 50 51" fill="none" xmlns="http://www.w3.org/2000/svg">
<path d="M25 31.875C28.4518 31.875 31.25 29.0208 31.25 25.5C31.25 21.9792 28.4518 19.125 25 19.125C21.5482 19.125 18.75 21.9792 18.75 25.5C18.75 29.0208 21.5482 31.875 25 31.875Z" stroke="#6C0BF4" stroke-width="3" stroke-linecap="round" stroke-linejoin="round"/>
<path d="M40.4166 31.875C40.1393 32.5159 40.0566 33.2269 40.1791 33.9163C40.3017 34.6056 40.6239 35.2417 41.1041 35.7425L41.2291 35.87C41.6165 36.2647 41.9239 36.7334 42.1336 37.2494C42.3432 37.7653 42.4512 38.3184 42.4512 38.8769C42.4512 39.4354 42.3432 39.9884 42.1336 40.5044C41.9239 41.0203 41.6165 41.489 41.2291 41.8837C40.8422 42.2789 40.3826 42.5924 39.8768 42.8063C39.371 43.0201 38.8288 43.1302 38.2812 43.1302C37.7337 43.1302 37.1915 43.0201 36.6856 42.8063C36.1798 42.5924 35.7203 42.2789 35.3333 41.8837L35.2083 41.7562C34.7173 41.2664 34.0937 40.9377 33.4179 40.8127C32.742 40.6878 32.045 40.7721 31.4166 41.055C30.8005 41.3244 30.2749 41.7716 29.9048 42.3418C29.5346 42.9119 29.336 43.58 29.3333 44.2637V44.625C29.3333 45.7522 28.8943 46.8332 28.1129 47.6302C27.3315 48.4272 26.2717 48.875 25.1666 48.875C24.0616 48.875 23.0018 48.4272 22.2204 47.6302C21.439 46.8332 21 45.7522 21 44.625V44.4337C20.9838 43.7304 20.7606 43.0482 20.3594 42.476C19.9581 41.9037 19.3973 41.4679 18.75 41.225C18.1216 40.9421 17.4246 40.8578 16.7488 40.9827C16.0729 41.1077 15.4493 41.4364 14.9583 41.9262L14.8333 42.0538C14.4463 42.4489 13.9868 42.7624 13.481 42.9763C12.9752 43.1901 12.433 43.3002 11.8854 43.3002C11.3378 43.3002 10.7956 43.1901 10.2898 42.9763C9.78399 42.7624 9.32445 42.4489 8.93748 42.0538C8.55008 41.659 8.24275 41.1903 8.03306 40.6744C7.82338 40.1584 7.71545 39.6054 7.71545 39.0469C7.71545 38.4884 7.82338 37.9353 8.03306 37.4194C8.24275 36.9034 8.55008 36.4347 8.93748 36.04L9.06248 35.9125C9.54276 35.4117 9.86495 34.7756 9.98749 34.0863C10.11 33.3969 10.0273 32.6859 9.74998 32.045C9.48589 31.4165 9.04739 30.8805 8.48845 30.5029C7.92951 30.1253 7.27453 29.9227 6.60415 29.92H6.24998C5.14491 29.92 4.0851 29.4722 3.3037 28.6752C2.5223 27.8782 2.08331 26.7972 2.08331 25.67C2.08331 24.5428 2.5223 23.4618 3.3037 22.6648C4.0851 21.8678 5.14491 21.42 6.24998 21.42H6.43748C7.12705 21.4035 7.79582 21.1759 8.35685 20.7666C8.91788 20.3573 9.34522 19.7853 9.58331 19.125C9.86064 18.4841 9.94336 17.7731 9.82082 17.0837C9.69828 16.3944 9.3761 15.7583 8.89581 15.2575L8.77081 15.13C8.38341 14.7353 8.07608 14.2666 7.8664 13.7506C7.65671 13.2347 7.54879 12.6816 7.54879 12.1231C7.54879 11.5646 7.65671 11.0116 7.8664 10.4956C8.07608 9.97969 8.38341 9.51096 8.77081 9.11625C9.15778 8.7211 9.61732 8.40762 10.1231 8.19375C10.629 7.97987 11.1712 7.86978 11.7187 7.86978C12.2663 7.86978 12.8085 7.97987 13.3143 8.19375C13.8201 8.40762 14.2797 8.7211 14.6666 9.11625L14.7916 9.24375C15.2826 9.73364 15.9063 10.0623 16.5821 10.1873C17.2579 10.3122 17.9549 10.2279 18.5833 9.945H18.75C19.3662 9.67563 19.8917 9.22836 20.2618 8.65824C20.632 8.08812 20.8306 7.42005 20.8333 6.73625V6.375C20.8333 5.24783 21.2723 4.16683 22.0537 3.3698C22.8351 2.57277 23.8949 2.125 25 2.125C26.105 2.125 27.1649 2.57277 27.9463 3.3698C28.7277 4.16683 29.1666 5.24783 29.1666 6.375V6.56625C29.1693 7.25005 29.368 7.91812 29.7381 8.48824C30.1083 9.05836 30.6338 9.50563 31.25 9.775C31.8783 10.0579 32.5754 10.1422 33.2512 10.0173C33.927 9.89227 34.5506 9.56364 35.0416 9.07375L35.1666 8.94625C35.5536 8.5511 36.0132 8.23762 36.519 8.02375C37.0248 7.80987 37.567 7.69978 38.1146 7.69978C38.6621 7.69978 39.2043 7.80987 39.7101 8.02375C40.216 8.23762 40.6755 8.5511 41.0625 8.94625C41.4499 9.34096 41.7572 9.80969 41.9669 10.3256C42.1766 10.8416 42.2845 11.3946 42.2845 11.9531C42.2845 12.5116 42.1766 13.0647 41.9669 13.5806C41.7572 14.0966 41.4499 14.5653 41.0625 14.96L40.9375 15.0875C40.4572 15.5883 40.135 16.2244 40.0125 16.9137C39.8899 17.6031 39.9727 18.3141 40.25 18.955V19.125C40.5141 19.7535 40.9526 20.2895 41.5115 20.6671C42.0704 21.0447 42.7254 21.2473 43.3958 21.25H43.75C44.855 21.25 45.9149 21.6978 46.6963 22.4948C47.4777 23.2918 47.9166 24.3728 47.9166 25.5C47.9166 26.6272 47.4777 27.7082 46.6963 28.5052C45.9149 29.3022 44.855 29.75 43.75 29.75H43.5625C42.8921 29.7527 42.2371 29.9553 41.6782 30.3329C41.1192 30.7105 40.6807 31.2465 40.4166 31.875V31.875Z" stroke="#363636" stroke-width="3" stroke-linecap="round" stroke-linejoin="round"/>
</svg>
