<svg width="54" height="55" viewBox="0 0 54 55" fill="none" xmlns="http://www.w3.org/2000/svg">
<path d="M36 9.16663H40.5C41.6935 9.16663 42.8381 9.64951 43.682 10.5091C44.5259 11.3686 45 12.5344 45 13.75V45.8333C45 47.0489 44.5259 48.2147 43.682 49.0742C42.8381 49.9337 41.6935 50.4166 40.5 50.4166H13.5C12.3065 50.4166 11.1619 49.9337 10.318 49.0742C9.47411 48.2147 9 47.0489 9 45.8333V13.75C9 12.5344 9.47411 11.3686 10.318 10.5091C11.1619 9.64951 12.3065 9.16663 13.5 9.16663H18" stroke="#363636" stroke-width="3" stroke-linecap="round" stroke-linejoin="round"/>
<path d="M33.75 4.58337H20.25C19.0074 4.58337 18 5.60939 18 6.87504V11.4584C18 12.724 19.0074 13.75 20.25 13.75H33.75C34.9926 13.75 36 12.724 36 11.4584V6.87504C36 5.60939 34.9926 4.58337 33.75 4.58337Z" stroke="#363636" stroke-width="3" stroke-linecap="round" stroke-linejoin="round"/>
<rect x="17" y="23" width="20" height="3" fill="#6C0BF4"/>
<rect x="17" y="30" width="20" height="3" fill="#6C0BF4"/>
<rect x="17" y="37" width="20" height="3" fill="#6C0BF4"/>
</svg>
