<svg width="54" height="48" viewBox="0 0 54 48" fill="none" xmlns="http://www.w3.org/2000/svg">
<path d="M35.305 9.56282H3.79981C2.69524 9.56282 1.7998 10.4582 1.7998 11.5628V44.4C1.7998 45.5046 2.69524 46.4 3.7998 46.4H45.6603C49.051 46.4 51.7998 43.6513 51.7998 40.2605V40.2605M51.7998 40.2605V10.4C51.7998 5.98175 48.2181 2.40002 43.7998 2.40002H43.4905C42.386 2.40002 41.4905 3.29545 41.4905 4.40002V31.5076C41.4905 32.6511 42.45 33.5558 43.589 33.6568C47.1515 33.9728 51.7998 35.548 51.7998 40.2605Z" stroke="#363636" stroke-width="3"/>
<path d="M11.0371 38.8735V19.946C11.0371 18.8415 11.9325 17.946 13.0371 17.946H23.794M19.0692 33.3925V36.3787C19.0692 36.9309 19.517 37.3787 20.0692 37.3787H34.1335C34.6858 37.3787 35.1335 36.9309 35.1335 36.3787V19.946C35.1335 18.8415 34.2381 17.946 33.1335 17.946H23.794M17.5632 27.1018H22.794C23.3463 27.1018 23.794 26.6541 23.794 26.1018V17.946" stroke="#6C0BF4" stroke-width="3"/>
</svg>
